<svg xmlns="http://www.w3.org/2000/svg" aria-hidden="true" overflow="hidden" style="position:absolute;width:0;height:0"><defs><symbol id="burger-icon" viewBox="0 0 24 24"><path d="M3 13h18a1 1 0 0 0 0-2H3a1 1 0 0 0 0 2zm0-6h18a1 1 0 0 0 0-2H3a1 1 0 0 0 0 2zm0 12h18a1 1 0 0 0 0-2H3a1 1 0 0 0 0 2z"/></symbol><symbol id="dog-face-icon" viewBox="0 0 32 32">
<path fill="#ffeac8" d="M15.94 4.992c-7.272-0.188-9.627 5.442-9.807 7.555-0.14 1.643-0.845 7.65 2.58 11.685 1.768 2.083 4.6 3.12 7.603 3.050 3.027-0.070 5.762-0.672 7.602-3.098 3.098-4.082 2.768-10.182 2.348-12.155-0.395-1.835-1.927-6.822-10.325-7.037z"></path><path fill="#d27856" style="fill: var(--color2, #d27856)" d="M24.205 16.107c0.258 1.953-0.59 3.815-2.822 3.948-2.043 0.122-3.303-1.18-3.402-3.098-0.102-1.965 0.973-3.793 2.68-3.98 1.802-0.197 3.29 1.178 3.545 3.13zM4.725 6.68c0 0-2.458 0.963-3.050 2.392-0.797 1.925-0.43 5.745 0 7.227 0.422 1.455 1.548 2.957 3.285 2.91s3.263-1.808 3.8-4.105c0.54-2.3 0.658-6.24 0.82-6.945s0.445-1.268 0.445-1.268c0 0-2.158-2.090-5.3-0.213zM25.302 6.375c0 0 3.332 0.117 4.13 0.47s1.525 1.947 1.455 4.082c-0.070 2.135-0.21 5.588-1.29 6.78-0.892 0.985-2.697 1.055-3.707-0.165s-1.643-3.285-1.878-4.622c-0.235-1.338-0.633-3.072-0.892-3.848-0.258-0.775-0.892-2.322-1.22-2.675-0.33-0.35 0.328-0.68 3.402-0.022z"></path><path fill="#865b51" style="fill: var(--color3, #865b51)" d="M7.492 5.578c-1.808-0.115-4.787 1.315-5.397 2.793s-0.252 6.273 0.26 7.672c0.54 1.477 1.665 3.332 3.612 1.738s2.463-5.607 2.652-6.898c0.188-1.29 0.445-2.863 0.728-3.19s0.68-0.798 0.68-0.798c0 0-0.305-1.178-2.535-1.317zM25.7 5.273c1.698 0.117 3.543 0.75 4.223 2.23 0.68 1.477 0.422 4.975 0.165 6.64s-0.867 3.402-2.392 3.215c-1.525-0.188-2.3-2.252-2.767-4.2-0.47-1.947-0.962-3.895-1.573-5.303-0.367-0.85-1.643-1.478-1.643-1.478s0.563-1.34 3.988-1.105z"></path>
<symbol id="close-icon" viewBox="0 0 32 32">
<path d="M32 3.223l-3.223-3.223-12.777 12.777-12.777-12.777-3.223 3.223 12.777 12.777-12.777 12.777 3.223 3.223 12.777-12.777 12.777 12.777 3.223-3.223-12.777-12.777 12.777-12.777z"></path>
</symbol>
<symbol id="done-icon" viewBox="0 0 40 32">
<path d="M33.782 1.020c0.691-0.662 1.611-1.027 2.565-1.020s1.869 0.387 2.55 1.059c0.681 0.672 1.076 1.584 1.101 2.543s-0.321 1.891-0.966 2.598l-19.578 24.617c-0.337 0.365-0.743 0.657-1.195 0.86s-0.939 0.312-1.434 0.322c-0.495 0.009-0.986-0.082-1.445-0.268s-0.876-0.463-1.226-0.815l-12.984-13.054c-0.362-0.339-0.652-0.747-0.853-1.201s-0.309-0.944-0.318-1.441 0.082-0.99 0.267-1.451c0.185-0.461 0.461-0.879 0.81-1.231s0.766-0.628 1.224-0.814 0.949-0.277 1.443-0.269c0.494 0.009 0.981 0.118 1.433 0.32s0.858 0.494 1.195 0.857l10.275 10.325 17.042-21.83c0.031-0.038 0.063-0.074 0.098-0.109h-0.005z"></path>
</symbol>
<symbol id="filter-icon" viewBox="0 0 32 32">
<path stroke-linejoin="round" stroke-linecap="round" stroke-miterlimit="4" stroke-width="2.6667" d="M26.667 8.45v-0.983c0-0.747-0.001-1.12-0.146-1.405-0.128-0.251-0.331-0.455-0.582-0.583-0.285-0.145-0.66-0.145-1.406-0.145h-17.067c-0.747 0-1.12 0-1.405 0.145-0.251 0.128-0.455 0.332-0.583 0.583-0.145 0.285-0.145 0.659-0.145 1.405v0.983c0 0.326 0 0.489 0.037 0.643 0.033 0.136 0.087 0.266 0.16 0.385 0.082 0.134 0.198 0.25 0.428 0.48l6.751 6.751c0.231 0.231 0.346 0.346 0.428 0.48 0.073 0.119 0.128 0.249 0.16 0.385 0.036 0.152 0.036 0.313 0.036 0.633v6.341c0 1.143 0 1.715 0.241 2.059 0.21 0.301 0.535 0.501 0.897 0.555 0.415 0.061 0.927-0.194 1.949-0.705l1.067-0.533c0.428-0.214 0.642-0.321 0.798-0.481 0.138-0.141 0.244-0.311 0.308-0.498 0.073-0.211 0.073-0.451 0.073-0.929v-5.798c0-0.326 0-0.489 0.037-0.643 0.033-0.136 0.087-0.266 0.16-0.385 0.082-0.135 0.198-0.25 0.428-0.48l0-0 6.75-6.75c0.231-0.231 0.346-0.346 0.428-0.48 0.073-0.119 0.128-0.249 0.16-0.385 0.036-0.152 0.036-0.313 0.036-0.633v-0.010z"></path>
</symbol>
<symbol id="minus-icon" viewBox="0 0 24 24">
<path d="M5 13h14c0.552 0 1-0.448 1-1s-0.448-1-1-1h-14c-0.552 0-1 0.448-1 1s0.448 1 1 1z"></path>
</symbol>
<symbol id="plus-icon" viewBox="0 0 24 24">
<path d="M5 13h6v6c0 0.552 0.448 1 1 1s1-0.448 1-1v-6h6c0.552 0 1-0.448 1-1s-0.448-1-1-1h-6v-6c0-0.552-0.448-1-1-1s-1 0.448-1 1v6h-6c-0.552 0-1 0.448-1 1s0.448 1 1 1z"></path>
</symbol>
<symbol id="trash-icon" viewBox="0 0 24 24">
<path d="M18 7v13c0 0.276-0.111 0.525-0.293 0.707s-0.431 0.293-0.707 0.293h-10c-0.276 0-0.525-0.111-0.707-0.293s-0.293-0.431-0.293-0.707v-13zM17 5v-1c0-0.828-0.337-1.58-0.879-2.121s-1.293-0.879-2.121-0.879h-4c-0.828 0-1.58 0.337-2.121 0.879s-0.879 1.293-0.879 2.121v1h-4c-0.552 0-1 0.448-1 1s0.448 1 1 1h1v13c0 0.828 0.337 1.58 0.879 2.121s1.293 0.879 2.121 0.879h10c0.828 0 1.58-0.337 2.121-0.879s0.879-1.293 0.879-2.121v-13h1c0.552 0 1-0.448 1-1s-0.448-1-1-1zM9 5v-1c0-0.276 0.111-0.525 0.293-0.707s0.431-0.293 0.707-0.293h4c0.276 0 0.525 0.111 0.707 0.293s0.293 0.431 0.293 0.707v1zM9 11v6c0 0.552 0.448 1 1 1s1-0.448 1-1v-6c0-0.552-0.448-1-1-1s-1 0.448-1 1zM13 11v6c0 0.552 0.448 1 1 1s1-0.448 1-1v-6c0-0.552-0.448-1-1-1s-1 0.448-1 1z"></path>
</symbol>
<symbol id="dog2-face-icon" viewBox="0 0 32 32">
<path fill="#dd2e44" style="fill: var(--color1, #dd2e44)" d="M13.333 24v5.333c0 0 0 2.667 2.667 2.667s2.667-2.667 2.667-2.667v-5.333h-5.333z"></path>
<path fill="#be1931" style="fill: var(--color2, #be1931)" d="M13.333 29.333l0.001 0.033c0.925-0.031 1.792-0.244 2.34-1.143 0.033-0.057 0.081-0.104 0.138-0.137s0.122-0.050 0.188-0.050 0.131 0.017 0.188 0.050c0.057 0.033 0.105 0.080 0.138 0.137 0.548 0.899 1.414 1.112 2.34 1.143v-5.366h-5.333v5.333z"></path>
<path fill="#d99e82" style="fill: var(--color3, #d99e82)" d="M28.404 19.217c0 5.579-4.444 5.579-4.444 5.579h-16c0 0-4.444 0-4.444-5.579 0-5.977 4.444-16.55 12.444-16.55s12.444 11.462 12.444 16.55z"></path>
<path fill="#f4c7b5" style="fill: var(--color4, #f4c7b5)" d="M16 17.778c-6.222 0-8.889 3.135-8.889 5.684 0 1.297 0.515 2.54 1.432 3.457s2.16 1.432 3.457 1.432c1.427 0 2.704-0.59 3.599-2.46 0.035-0.077 0.091-0.142 0.162-0.188s0.154-0.070 0.238-0.070 0.167 0.024 0.238 0.070c0.071 0.046 0.127 0.111 0.162 0.188 0.895 1.869 2.173 2.46 3.599 2.46 1.297 0 2.54-0.515 3.457-1.432s1.432-2.16 1.432-3.457c0.001-2.549-2.666-5.684-8.888-5.684z"></path>
<path fill="#292f33" style="fill: var(--color5, #292f33)" d="M13.333 20.351c-0.889 0.889 1.778 3.556 2.667 3.556s3.556-2.667 2.667-3.556c-0.889-0.889-4.444-0.889-5.333 0zM11.556 16.889c-0.978 0-1.778-0.8-1.778-1.778v-1.778c0-0.978 0.8-1.778 1.778-1.778s1.778 0.8 1.778 1.778v1.778c0 0.978-0.8 1.778-1.778 1.778zM20.444 16.889c-0.978 0-1.778-0.8-1.778-1.778v-1.778c0-0.978 0.8-1.778 1.778-1.778s1.778 0.8 1.778 1.778v1.778c0 0.978-0.8 1.778-1.778 1.778z"></path>
<path fill="#662113" style="fill: var(--color6, #662113)" d="M13.333 3.207c-0.941-1.252-2.95-2.424-10.82 0.526-3.684 1.381-1.884 12.092 0.984 12.787 0.983 0 3.934 0 3.934-7.868 0-0.196-0.002-0.376-0.004-0.556 1.772-2.498 3.684-3.779 5.906-4.889zM29.486 3.733c-7.869-2.95-9.878-1.779-10.82-0.526 2.222 1.111 4.133 2.392 5.906 4.89-0.003 0.179-0.004 0.359-0.004 0.556 0 7.868 2.95 7.868 3.934 7.868 2.868-0.695 4.668-11.406 0.984-12.788z"></path>
<path fill="#d99e82" style="fill: var(--color3, #d99e82)" d="M20.889 23.111c0.245 0 0.444-0.199 0.444-0.444s-0.199-0.444-0.444-0.444c-0.245 0-0.444 0.199-0.444 0.444s0.199 0.444 0.444 0.444z"></path>
<path fill="#d99e82" style="fill: var(--color3, #d99e82)" d="M10.222 23.111c0.245 0 0.444-0.199 0.444-0.444s-0.199-0.444-0.444-0.444c-0.245 0-0.444 0.199-0.444 0.444s0.199 0.444 0.444 0.444z"></path>
<path fill="#d99e82" style="fill: var(--color3, #d99e82)" d="M22.667 24.889c0.245 0 0.444-0.199 0.444-0.444s-0.199-0.444-0.444-0.444c-0.245 0-0.444 0.199-0.444 0.444s0.199 0.444 0.444 0.444z"></path>
<path fill="#d99e82" style="fill: var(--color3, #d99e82)" d="M9.333 24.889c0.245 0 0.444-0.199 0.444-0.444s-0.199-0.444-0.444-0.444c-0.245 0-0.444 0.199-0.444 0.444s0.199 0.444 0.444 0.444z"></path>
<path fill="#d99e82" style="fill: var(--color3, #d99e82)" d="M20.444 25.778c0.491 0 0.889-0.398 0.889-0.889s-0.398-0.889-0.889-0.889c-0.491 0-0.889 0.398-0.889 0.889s0.398 0.889 0.889 0.889z"></path>
<path fill="#d99e82" style="fill: var(--color3, #d99e82)" d="M11.556 25.778c0.491 0 0.889-0.398 0.889-0.889s-0.398-0.889-0.889-0.889c-0.491 0-0.889 0.398-0.889 0.889s0.398 0.889 0.889 0.889z"></path>
<path fill="#380f09" style="fill: var(--color7, #380f09)" d="M8.785 6.429c-0.23-0.598-0.564-1.242-1.045-1.724-0.083-0.083-0.181-0.148-0.288-0.193s-0.223-0.068-0.34-0.068c-0.117 0-0.232 0.023-0.34 0.068s-0.206 0.11-0.288 0.193c-0.083 0.083-0.148 0.181-0.193 0.288s-0.068 0.223-0.068 0.34c0 0.117 0.023 0.232 0.068 0.34s0.11 0.206 0.193 0.288c0.507 0.507 0.948 1.719 0.949 2.085 0.129-0.359 0.746-1.022 1.353-1.619zM23.2 6.429c0.23-0.597 0.564-1.242 1.045-1.724 0.082-0.083 0.181-0.148 0.288-0.193s0.223-0.068 0.34-0.068c0.117 0 0.232 0.023 0.34 0.068s0.206 0.11 0.288 0.193c0.082 0.083 0.148 0.181 0.193 0.288s0.068 0.223 0.068 0.34-0.023 0.232-0.068 0.34c-0.045 0.108-0.11 0.206-0.193 0.288-0.507 0.507-0.948 1.719-0.949 2.085-0.129-0.359-0.746-1.022-1.353-1.619z"></path>
</symbol>
<path fill="#2f2f2f" style="fill: var(--color4, #2f2f2f)" d="M12.625 16.923c-0.1 0.855-0.54 1.545-1.495 1.445-0.678-0.073-1.133-0.88-1.033-1.738 0.1-0.855 0.398-1.47 1.197-1.455 1.242 0.023 1.43 0.89 1.33 1.748zM22.435 16.683c0.040 0.86-0.3 1.595-1.293 1.668-0.863 0.063-1.305-0.685-1.343-1.545-0.040-0.86 0.387-1.55 1.21-1.652 1.067-0.137 1.385 0.67 1.425 1.53zM18.78 21.018c0.040 0.86-0.54 1.665-2.348 1.643-1.76-0.023-2.4-0.735-2.44-1.595s0.96-1.633 2.393-1.665c1.973-0.050 2.355 0.755 2.395 1.617z"></path>
<path fill="#e94b8c" style="fill: var(--color5, #e94b8c)" d="M14.79 24.49c0 0 0.213 2.042 0.422 2.652 0.445 1.29 2.32 1.075 2.652-0.14 0.282-1.032 0.095-2.815 0.095-2.815l-1.665-0.235-1.505 0.538z"></path>
<path fill="#ef87b2" style="fill: var(--color6, #ef87b2)" d="M16.49 25.17c-0.293 0.012-0.282 0.282-0.282 0.902 0 0.622 0.035 0.997 0.317 0.985s0.247-0.492 0.247-0.938c0-0.445 0.023-0.962-0.282-0.95z"></path>
<path fill="#2f2f30" style="fill: var(--color7, #2f2f30)" d="M12.537 22.552c-0.338 0.497 0.318 0.938 0.857 1.302 0.54 0.363 1.195 0.915 1.97 0.902 0.868-0.012 1.103-0.598 1.103-0.598s0.282 0.692 1.512 0.563c0.657-0.070 1.468-0.808 1.712-0.973 0.47-0.317 1.032-0.715 0.785-1.045-0.282-0.378-0.88 0.13-1.49 0.445-0.61 0.317-0.82 0.47-1.277 0.47s-0.775-0.188-0.797-0.95c-0.020-0.622-0.012-0.74-0.012-0.74h-1.045c0 0 0.035 0.657 0.035 0.845 0 0.492-0.258 0.705-0.75 0.727s-1.020-0.387-1.28-0.54c-0.255-0.15-1.053-0.808-1.322-0.41z"></path>
</symbol><symbol id="paw-icon" viewBox="0 0 35 32"><path d="M18.791 7.168v0.041c-0.001 0.808 0.141 1.611 0.419 2.372l-0.016-0.049c0.27 0.742 0.729 1.404 1.333 1.923l0.005 0.004c0.573 0.505 1.334 0.813 2.169 0.813h0.063c1.102-0.006 2.157-0.437 2.938-1.199 0.853-0.768 1.517-1.716 1.941-2.772l0.018-0.051c0.411-0.998 0.627-2.064 0.638-3.14v-0.047c0-0.832-0.148-1.631-0.419-2.372l0.016 0.049c-0.27-0.742-0.729-1.404-1.333-1.923l-0.005-0.004c-0.615-0.542-1.418-0.833-2.244-0.813h0.004c-1.102 0.005-2.158 0.435-2.938 1.199-0.845 0.768-1.503 1.711-1.926 2.762l-0.018 0.051c-0.393 0.933-0.626 2.018-0.638 3.152v0.004h-0.007zM26.061 17.233l-0.001 0.112c-0.002 1.003 0.314 1.981 0.904 2.8l-0.011-0.016c0.269 0.38 0.628 0.691 1.046 0.905s0.883 0.327 1.355 0.327l0.135-0.003h-0.007c1.115-0.012 2.186-0.425 3.011-1.16l-0.004 0.004c0.878-0.737 1.587-1.646 2.083-2.67s0.767-2.137 0.796-3.27v-0.011l0.001-0.109c0-1.047-0.335-2.018-0.904-2.814l0.011 0.016c-0.28-0.401-0.66-0.726-1.103-0.943s-0.936-0.319-1.432-0.297h0.007c-1.115 0.012-2.186 0.425-3.011 1.16l0.004-0.004c-0.879 0.741-1.589 1.655-2.085 2.683s-0.766 2.146-0.794 3.282v0.007zM17.682 16.67c-1.986 0.106-3.887 0.82-5.437 2.042l0.019-0.015c-1.897 1.321-3.532 2.972-4.824 4.87l-0.044 0.068c-1.164 1.534-1.845 3.368-1.957 5.276l-0.001 0.027-0.003 0.116c0 0.539 0.135 1.048 0.373 1.495l-0.008-0.017c0.228 0.41 0.585 0.736 1.017 0.932l0.014 0.005c0.396 0.185 0.857 0.331 1.338 0.412l0.033 0.004c0.502 0.078 1.010 0.116 1.518 0.115h0.097c1.401-0.091 2.776-0.419 4.064-0.968l-0.079 0.031c1.216-0.52 2.512-0.836 3.835-0.935l0.042-0.003c1.5 0.109 2.89 0.44 4.182 0.959l-0.091-0.032c1.347 0.531 2.773 0.843 4.223 0.925l0.038 0.001c2.599 0.002 3.898-1.011 3.898-3.039-0.059-1.421-0.476-2.805-1.213-4.030l0.023 0.040c-0.796-1.467-1.795-2.819-2.97-4.016l0.005 0.005c-1.148-1.176-2.462-2.186-3.901-2.999l-0.084-0.044c-1.229-0.752-2.637-1.175-4.084-1.228h-0.016l-0.005 0.003zM12.602 12.274h0.063c0.802 0.001 1.576-0.29 2.172-0.816l-0.003 0.003c0.599-0.512 1.056-1.164 1.327-1.896l0.011-0.032c0.27-0.746 0.406-1.532 0.404-2.323v-0.041c-0.012-1.14-0.245-2.223-0.66-3.215l0.022 0.059c-0.421-1.068-1.084-2.028-1.939-2.808l-0.005-0.004c-0.78-0.762-1.835-1.192-2.936-1.197h-0.064c-0.835 0-1.597 0.309-2.172 0.816l0.003-0.003c-0.596 0.511-1.055 1.159-1.327 1.896l-0.011 0.032c-0.26 0.696-0.409 1.5-0.409 2.338v0.025c0.012 1.099 0.236 2.187 0.66 3.204l-0.022-0.059c0.422 1.074 1.090 2.038 1.953 2.818l0.005 0.005c0.781 0.76 1.836 1.189 2.936 1.195h0.001l-0.008 0.004zM3.422 10.109l-0.125-0.003c-0.994 0-1.871 0.488-2.396 1.233l-0.007 0.009c-0.584 0.821-0.896 1.798-0.894 2.799l0.001 0.115v-0.005c0.027 1.132 0.296 2.245 0.79 3.269s1.202 1.933 2.078 2.671l0.011 0.009c0.824 0.732 1.892 1.144 3.004 1.156h0.003c0.491 0.022 0.98-0.079 1.421-0.292s0.82-0.532 1.101-0.928l0.007-0.009c0.608-0.848 0.92-1.866 0.892-2.902v0.005c-0.026-1.136-0.295-2.254-0.789-3.281s-1.202-1.942-2.079-2.685l-0.011-0.009c-0.823-0.73-1.889-1.14-2.999-1.154h-0.003l-0.005 0.001z"></path></symbol><symbol id="chevron-right-icon" viewBox="0 0 32 32"><path d="M13.151 8.351a1.2 1.2 0 0 1 1.697 0l6.8 6.8a1.2 1.2 0 0 1 0 1.697l-6.8 6.8a1.2 1.2 0 1 1-1.697-1.697l5.951-5.952-5.951-5.951a1.2 1.2 0 0 1 0-1.697z"/></symbol><symbol id="twitter-icon" viewBox="0 0 32 32"><path d="M10.067 29c12.072 0 18.678-10.004 18.678-18.677 0-.281-.006-.569-.019-.85A13.31 13.31 0 0 0 32 6.074c-1.197.532-2.467.88-3.768 1.031a6.602 6.602 0 0 0 2.887-3.631 13.2 13.2 0 0 1-4.168 1.593 6.57 6.57 0 0 0-7.888-1.291 6.573 6.573 0 0 0-3.304 7.278A18.65 18.65 0 0 1 2.23 4.199c-.838 1.445-1.095 3.155-.717 4.782s1.36 3.05 2.748 3.979a6.57 6.57 0 0 1-2.974-.819v.081a6.56 6.56 0 0 0 5.268 6.438 6.532 6.532 0 0 1-2.962.113 6.577 6.577 0 0 0 6.13 4.563A13.169 13.169 0 0 1 0 26.053a18.625 18.625 0 0 0 10.067 2.949z"/></symbol><symbol id="youtube-icon" viewBox="0 0 32 32"><path d="M31.681 9.6s-.312-2.206-1.275-3.175C29.187 5.15 27.825 5.144 27.2 5.069c-4.475-.325-11.194-.325-11.194-.325h-.013s-6.719 0-11.194.325c-.625.075-1.987.081-3.206 1.356C.63 7.394.324 9.6.324 9.6s-.325 2.594-.325 5.181v2.425c0 2.588.319 5.181.319 5.181s.312 2.206 1.269 3.175c1.219 1.275 2.819 1.231 3.531 1.369 2.563.244 10.881.319 10.881.319s6.725-.012 11.2-.331c.625-.075 1.987-.081 3.206-1.356.963-.969 1.275-3.175 1.275-3.175s.319-2.588.319-5.181v-2.425c0-2.588-.319-5.181-.319-5.181zM12.694 20.15v-8.994l8.644 4.512-8.644 4.481z"/></symbol><symbol id="instagram-icon" viewBox="0 0 32 32"><path d="M16 2.881c4.275 0 4.781.019 6.463.094 1.563.069 2.406.331 2.969.55a4.964 4.964 0 0 1 1.838 1.194 4.938 4.938 0 0 1 1.194 1.838c.219.563.481 1.412.55 2.969.075 1.688.094 2.194.094 6.462 0 4.275-.019 4.781-.094 6.463-.069 1.563-.331 2.406-.55 2.969a4.94 4.94 0 0 1-1.194 1.837 4.926 4.926 0 0 1-1.838 1.194c-.562.219-1.412.481-2.969.55-1.687.075-2.194.094-6.463.094-4.275 0-4.781-.019-6.463-.094-1.563-.069-2.406-.331-2.969-.55a4.94 4.94 0 0 1-1.838-1.194 4.93 4.93 0 0 1-1.194-1.837c-.219-.563-.481-1.413-.55-2.969-.075-1.687-.094-2.194-.094-6.463 0-4.275.019-4.781.094-6.462.069-1.563.331-2.406.55-2.969A4.964 4.964 0 0 1 4.73 4.719a4.926 4.926 0 0 1 1.838-1.194c.563-.219 1.412-.481 2.969-.55 1.681-.075 2.188-.094 6.463-.094zM16 0c-4.344 0-4.887.019-6.594.094-1.7.075-2.869.35-3.881.744-1.056.412-1.95.956-2.837 1.85a7.833 7.833 0 0 0-1.85 2.831C.444 6.538.169 7.7.094 9.4.019 11.113 0 11.656 0 16s.019 4.887.094 6.594c.075 1.7.35 2.869.744 3.881.413 1.056.956 1.95 1.85 2.837a7.833 7.833 0 0 0 2.831 1.844c1.019.394 2.181.669 3.881.744 1.706.075 2.25.094 6.594.094s4.887-.019 6.594-.094c1.7-.075 2.869-.35 3.881-.744 1.05-.406 1.944-.956 2.831-1.844s1.437-1.781 1.844-2.831c.394-1.019.669-2.181.744-3.881.075-1.706.094-2.25.094-6.594s-.019-4.888-.094-6.594c-.075-1.7-.35-2.869-.744-3.881a7.494 7.494 0 0 0-1.831-2.844A7.82 7.82 0 0 0 26.482.843C25.463.449 24.301.174 22.601.099c-1.713-.081-2.256-.1-6.6-.1z"/><path d="M16 7.781c-4.537 0-8.219 3.681-8.219 8.219s3.681 8.219 8.219 8.219c4.537 0 8.219-3.681 8.219-8.219S20.538 7.781 16 7.781zm0 13.55a5.331 5.331 0 1 1 0-10.663 5.331 5.331 0 0 1 0 10.663zM26.463 7.456a1.92 1.92 0 1 1-3.839 0 1.92 1.92 0 0 1 3.839 0z"/></symbol><symbol id="facebook-icon" viewBox="0 0 32 32"><path d="M32 16c0-8.837-7.163-16-16-16S0 7.163 0 16c0 7.986 5.851 14.605 13.5 15.806V20.625H9.437V16H13.5v-3.525c0-4.01 2.389-6.225 6.043-6.225 1.75 0 3.582.313 3.582.313v3.938h-2.018c-1.987 0-2.607 1.233-2.607 2.5v3h4.437l-.709 4.625H18.5v11.181c7.649-1.2 13.5-7.82 13.5-15.806z"/></symbol><symbol id="heart-icon" viewBox="0 0 32 32"><path stroke-linecap="round" stroke-linejoin="round" stroke-width="2.667" d="M16 10.926C13.333 4.667 4 5.333 4 13.333S16 28 16 28s12-6.667 12-14.667-9.333-8.667-12-2.407z"/></symbol><symbol id="cart-icon" viewBox="0 0 32 32"><path stroke-linecap="round" stroke-linejoin="round" stroke-width="2.667" d="M4 4h.358c.632 0 .948 0 1.205.114.227.1.422.262.562.468.159.233.216.543.331 1.165l2.878 15.587h13.893c.606 0 .909 0 1.16-.107.221-.094.412-.247.554-.441.161-.22.228-.515.365-1.106l2.092-9.067c.206-.893.309-1.339.196-1.689a1.336 1.336 0 0 0-.585-.734c-.316-.189-.774-.189-1.69-.189H7.334M24 28a1.333 1.333 0 1 1 0-2.667A1.333 1.333 0 0 1 24 28zm-13.333 0a1.333 1.333 0 1 1 0-2.667 1.333 1.333 0 0 1 0 2.667z"/></symbol><symbol id="search-icon" viewBox="0 0 32 32"><path d="M20.943 19.057a1.333 1.333 0 1 0-1.886 1.886l1.886-1.886zm6.114 9.886a1.333 1.333 0 1 0 1.886-1.886l-1.886 1.886zm-13.724-7.61a8 8 0 0 1-8-8H2.666C2.666 19.224 7.442 24 13.333 24v-2.667zm-8-8a8 8 0 0 1 8-8V2.666c-5.891 0-10.667 4.776-10.667 10.667h2.667zm8-8a8 8 0 0 1 8 8H24c0-5.891-4.776-10.667-10.667-10.667v2.667zm8 8a8 8 0 0 1-8 8V24C19.224 24 24 19.224 24 13.333h-2.667zm-2.276 7.61 8 8 1.886-1.886-8-8-1.886 1.886z"/></symbol><symbol id="arrow-right-icon" viewBox="0 0 32 32"><path fill="none" stroke="var(--color1, #fdfdfd)" stroke-linecap="round" stroke-linejoin="round" stroke-width="2" d="m14.667 12 4 4-4 4M28 16c0-6.627-5.373-12-12-12S4 9.373 4 16s5.373 12 12 12 12-5.373 12-12z"/></symbol><symbol id="logo-icon" viewBox="0 0 92 32"><path fill="var(--color2, #103559)" d="M26.055 26.105c.514 0 .939.174 1.28.518.35.344.518.772.518 1.281s-.168.929-.518 1.281c-.341.344-.766.518-1.28.518h-1.107v1.876h-.893V26.11h2v-.004zm0 2.75c.526 0 .905-.399.905-.955s-.379-.955-.905-.955h-1.107v1.905h1.107v.004zM29.197 30.013c.129.548.632.85 1.313.85.467 0 .819-.153 1.059-.446l.73.376c-.401.525-1.002.787-1.794.787-.663 0-1.206-.18-1.616-.532-.41-.36-.614-.814-.614-1.362s.205-.986.605-1.347c.401-.368.926-.548 1.558-.548.597 0 1.091.188 1.474.556.387.368.583.822.583 1.347 0 .078-.009.188-.031.325h-3.263l-.004-.004zm2.404-.634c-.125-.583-.592-.889-1.171-.889-.654 0-1.113.341-1.238.889H31.6zM35.028 28.437h-.969v1.881c0 .502.327.494.969.464v.762c-1.292.157-1.814-.196-1.814-1.221v-1.881h-.718v-.817h.718v-.847l.845-.251v1.098h.969v.813zM37.109 29.345c.571.122 1.31.353 1.294 1.125 0 .345-.141.619-.414.815s-.615.294-1.029.294c-.731 0-1.274-.317-1.511-.843l.687-.388c.125.345.398.521.82.521s.631-.137.631-.404c0-.231-.309-.368-.703-.462-.555-.137-1.302-.353-1.286-1.113 0-.333.125-.6.386-.799.257-.204.587-.302.969-.302.615 0 1.109.282 1.37.752l-.675.368c-.125-.274-.362-.412-.695-.412-.301 0-.539.129-.539.384 0 .239.309.361.695.47v-.008zM43.468 26.91c-.665-.054-.988.2-.988.758v.075h.988v.8h-.988v3.036h-.906v-3.036h-.638v-.8h.638v-.075c0-1.05.656-1.624 1.895-1.558v.8zM44.506 31.031c-.408-.368-.616-.814-.616-1.347s.208-.979.616-1.347c.408-.368.912-.548 1.494-.548s1.085.18 1.494.548c.408.368.617.814.617 1.347s-.208.979-.617 1.347c-.408.368-.903.548-1.494.548s-1.085-.18-1.494-.548zM46 30.823c.352 0 .647-.11.886-.325s.36-.489.36-.814c0-.325-.122-.599-.36-.814s-.534-.325-.886-.325-.647.11-.886.325-.36.489-.36.814c0 .325.122.599.36.814s.534.325.886.325zM49.402 28.481c.218-.461.638-.692 1.241-.692v.87a1.336 1.336 0 0 0-.869.222c-.249.166-.371.441-.371.821v1.877h-.869v-3.725h.869v.627zM56.972 30.016c0 .446-.15.82-.453 1.117s-.671.446-1.108.446h-2.237v-5.474h2.071c.425 0 .789.149 1.08.437.299.289.445.65.445 1.079 0 .476-.178.845-.53 1.117.453.251.728.705.728 1.274l.004.004zm-2.94-3.066v1.44h1.213c.38 0 .672-.314.672-.718s-.291-.718-.672-.718h-1.213v-.004zm1.379 3.784c.396 0 .708-.335.708-.764s-.312-.764-.708-.764h-1.379v1.533h1.379v-.004zM58.737 30.013c.129.548.631.85 1.312.85.467 0 .818-.153 1.058-.446l.729.376c-.4.525-1.001.787-1.792.787-.663 0-1.205-.18-1.614-.532-.409-.36-.614-.814-.614-1.362s.205-.986.605-1.347c.4-.368.925-.548 1.556-.548.596 0 1.09.188 1.476.556a1.802 1.802 0 0 1 .552 1.672h-3.26l-.009-.004zm2.401-.634c-.124-.583-.591-.889-1.17-.889-.654 0-1.112.341-1.236.889h2.406zM63.696 29.345c.571.122 1.31.353 1.294 1.125 0 .345-.141.619-.414.815s-.615.294-1.029.294c-.731 0-1.274-.317-1.511-.843l.687-.388c.125.345.398.521.82.521s.631-.137.631-.404c0-.231-.309-.368-.703-.462-.555-.137-1.302-.353-1.286-1.113 0-.333.125-.6.386-.799.257-.204.587-.302.969-.302.615 0 1.109.282 1.37.752l-.675.368c-.125-.274-.362-.412-.695-.412-.301 0-.538.129-.538.384 0 .239.309.361.695.47v-.008zM67.945 28.437h-.967v1.881c0 .502.327.494.967.464v.762c-1.289.157-1.811-.196-1.811-1.221v-1.881h-.721v-.817h.721v-.847l.844-.251v1.098h.967v.813zM19.991 2.572c-.11-1.089-.548-1.308-1.398-1.308h-3.619c-.794 0-.986.135-1.287 1.009l-2.714 8.826-2.714-8.826c-.302-.874-.493-1.009-1.287-1.009H3.349c-.85 0-1.287.22-1.398 1.308L.031 19.899c-.081.625-.025.874.522.954l4.142.599c.629.08.769-.055.85-.519l.905-8.117 1.946 7.602c.191.625.438.874 1.07.874h3.016c.629 0 .879-.245 1.07-.874l1.92-7.602.93 8.117c.081.464.221.599.85.519l4.142-.599c.548-.08.603-.325.522-.954L19.992 2.572zM29.963 5.895c-4.648 0-7.174 3.186-7.174 7.579s2.526 7.579 7.174 7.579c4.648 0 7.174-3.186 7.174-7.579s-2.526-7.579-7.174-7.579zm0 10.2c-1.116 0-1.714-1.045-1.714-2.626s.598-2.626 1.714-2.626 1.714 1.045 1.714 2.626-.598 2.626-1.714 2.626zM47.561 5.903c-.953 0-8.082.189-8.546.841-.19.219-.19.517-.19 1.031l.219 11.839c.025 1.085.274 1.439 1.223 1.439h3.322c.953 0 1.223-.353 1.223-1.439V11.44c.409-.135.544-.189 1.008-.219.624-.025.923.164 1.117.677.135.543.164 1.359.164 2.47l-.025 5.242c0 1.085.299 1.439 1.252 1.439h3.402c.953 0 1.197-.353 1.223-1.439l.219-7.223c.025-1.767-.354-3.395-1.252-4.59-.953-1.195-2.369-1.902-4.355-1.902l-.004.008zM60.331 7.579h-3.42c-.936 0-1.205.323-1.205 1.408v10.632c0 1.081.269 1.433 1.205 1.433h3.474c.936 0 1.23-.352 1.23-1.433l-.054-10.632c0-1.056-.294-1.408-1.23-1.408zM58.872.421c-2.026 0-3.165 1.247-3.165 2.947s1.14 2.947 3.165 2.947c2.026 0 3.165-1.247 3.165-2.947S60.897.421 58.872.421zM73.558 6.336h-2.104v-3.66c0-1.084-.278-1.412-1.242-1.412h-3.265c-.968 0-1.272.353-1.272 1.412v3.66h-1.658c-.913 0-1.135.164-1.135 1.004v2.959c0 .84.223 1.004 1.135 1.004h1.658v5.152c0 3.471 1.851 5.018 5.338 5.018 1.024 0 2.048-.08 3.016-.273.416-.08.527-.189.527-.597l-.137-4.152c0-.353-.193-.488-.553-.408-.304.08-.608.134-1.024.134-.801 0-1.384-.273-1.384-1.437v-3.446h2.104c.913 0 1.135-.164 1.135-1.004V7.331c0-.841-.223-1.004-1.135-1.004l-.004.008zM82.716 5.895c-4.649 0-7.175 3.186-7.175 7.579s2.526 7.579 7.175 7.579c4.648 0 7.174-3.186 7.174-7.579s-2.526-7.579-7.174-7.579zm0 10.2c-1.116 0-1.714-1.045-1.714-2.626s.598-2.626 1.714-2.626c1.115 0 1.714 1.045 1.714 2.626s-.598 2.626-1.714 2.626zM91.224 6.488c-.487-.352-1.286-.149-1.79.453s-.518 1.376-.034 1.728c.487.352 1.286.148 1.79-.453s.517-1.376.034-1.728zM79.748 5.465c.574-.088.949-.813.838-1.622s-.66-1.396-1.234-1.308-.949.813-.838 1.622c.111.809.66 1.396 1.233 1.308zM87.175 6.209c.793.4 1.994-.357 2.677-1.693s.596-2.746-.202-3.146c-.793-.4-1.994.357-2.677 1.693s-.596 2.746.202 3.146zM83.07 5.046c.799.102 1.574-.945 1.729-2.335.154-1.394-.368-2.602-1.171-2.704-.799-.102-1.574.945-1.729 2.335-.154 1.394.368 2.602 1.171 2.704z"/></symbol><symbol id="play-icon" viewBox="0 0 32 32"><path d="M16 0C7.163 0 0 7.163 0 16s7.163 16 16 16 16-7.163 16-16S24.837 0 16 0zm0 29C8.82 29 3 23.18 3 16S8.82 3 16 3s13 5.82 13 13-5.82 13-13 13zM12 9l12 7-12 7z"/></symbol></defs></svg>