<svg xmlns="http://www.w3.org/2000/svg" aria-hidden="true" overflow="hidden" style="position:absolute;width:0;height:0"><defs><symbol id="burger-icon" viewBox="0 0 24 24"><path d="M3 13h18a1 1 0 0 0 0-2H3a1 1 0 0 0 0 2zm0-6h18a1 1 0 0 0 0-2H3a1 1 0 0 0 0 2zm0 12h18a1 1 0 0 0 0-2H3a1 1 0 0 0 0 2z"/></symbol><symbol id="twitter-icon" viewBox="0 0 32 32"><path d="M10.067 29c12.072 0 18.678-10.004 18.678-18.677 0-.281-.006-.569-.019-.85A13.31 13.31 0 0 0 32 6.074c-1.197.532-2.467.88-3.768 1.031a6.602 6.602 0 0 0 2.887-3.631 13.2 13.2 0 0 1-4.168 1.593 6.57 6.57 0 0 0-7.888-1.291 6.573 6.573 0 0 0-3.304 7.278A18.65 18.65 0 0 1 2.23 4.199c-.838 1.445-1.095 3.155-.717 4.782s1.36 3.05 2.748 3.979a6.57 6.57 0 0 1-2.974-.819v.081a6.56 6.56 0 0 0 5.268 6.438 6.532 6.532 0 0 1-2.962.113 6.577 6.577 0 0 0 6.13 4.563A13.169 13.169 0 0 1 0 26.053a18.625 18.625 0 0 0 10.067 2.949z"/></symbol><symbol id="youtube-icon" viewBox="0 0 32 32"><path d="M31.681 9.6s-.312-2.206-1.275-3.175C29.187 5.15 27.825 5.144 27.2 5.069c-4.475-.325-11.194-.325-11.194-.325h-.013s-6.719 0-11.194.325c-.625.075-1.987.081-3.206 1.356C.63 7.394.324 9.6.324 9.6s-.325 2.594-.325 5.181v2.425c0 2.588.319 5.181.319 5.181s.312 2.206 1.269 3.175c1.219 1.275 2.819 1.231 3.531 1.369 2.563.244 10.881.319 10.881.319s6.725-.012 11.2-.331c.625-.075 1.987-.081 3.206-1.356.963-.969 1.275-3.175 1.275-3.175s.319-2.588.319-5.181v-2.425c0-2.588-.319-5.181-.319-5.181zM12.694 20.15v-8.994l8.644 4.512-8.644 4.481z"/></symbol><symbol id="instagram-icon" viewBox="0 0 32 32"><path d="M16 2.881c4.275 0 4.781.019 6.463.094 1.563.069 2.406.331 2.969.55a4.964 4.964 0 0 1 1.838 1.194 4.938 4.938 0 0 1 1.194 1.838c.219.563.481 1.412.55 2.969.075 1.688.094 2.194.094 6.462 0 4.275-.019 4.781-.094 6.463-.069 1.563-.331 2.406-.55 2.969a4.94 4.94 0 0 1-1.194 1.837 4.926 4.926 0 0 1-1.838 1.194c-.562.219-1.412.481-2.969.55-1.687.075-2.194.094-6.463.094-4.275 0-4.781-.019-6.463-.094-1.563-.069-2.406-.331-2.969-.55a4.94 4.94 0 0 1-1.838-1.194 4.93 4.93 0 0 1-1.194-1.837c-.219-.563-.481-1.413-.55-2.969-.075-1.687-.094-2.194-.094-6.463 0-4.275.019-4.781.094-6.462.069-1.563.331-2.406.55-2.969A4.964 4.964 0 0 1 4.73 4.719a4.926 4.926 0 0 1 1.838-1.194c.563-.219 1.412-.481 2.969-.55 1.681-.075 2.188-.094 6.463-.094zM16 0c-4.344 0-4.887.019-6.594.094-1.7.075-2.869.35-3.881.744-1.056.412-1.95.956-2.837 1.85a7.833 7.833 0 0 0-1.85 2.831C.444 6.538.169 7.7.094 9.4.019 11.113 0 11.656 0 16s.019 4.887.094 6.594c.075 1.7.35 2.869.744 3.881.413 1.056.956 1.95 1.85 2.837a7.833 7.833 0 0 0 2.831 1.844c1.019.394 2.181.669 3.881.744 1.706.075 2.25.094 6.594.094s4.887-.019 6.594-.094c1.7-.075 2.869-.35 3.881-.744 1.05-.406 1.944-.956 2.831-1.844s1.437-1.781 1.844-2.831c.394-1.019.669-2.181.744-3.881.075-1.706.094-2.25.094-6.594s-.019-4.888-.094-6.594c-.075-1.7-.35-2.869-.744-3.881a7.494 7.494 0 0 0-1.831-2.844A7.82 7.82 0 0 0 26.482.843C25.463.449 24.301.174 22.601.099c-1.713-.081-2.256-.1-6.6-.1z"/><path d="M16 7.781c-4.537 0-8.219 3.681-8.219 8.219s3.681 8.219 8.219 8.219c4.537 0 8.219-3.681 8.219-8.219S20.538 7.781 16 7.781zm0 13.55a5.331 5.331 0 1 1 0-10.663 5.331 5.331 0 0 1 0 10.663zM26.463 7.456a1.92 1.92 0 1 1-3.839 0 1.92 1.92 0 0 1 3.839 0z"/></symbol><symbol id="facebook-icon" viewBox="0 0 32 32"><path d="M32 16c0-8.837-7.163-16-16-16S0 7.163 0 16c0 7.986 5.851 14.605 13.5 15.806V20.625H9.437V16H13.5v-3.525c0-4.01 2.389-6.225 6.043-6.225 1.75 0 3.582.313 3.582.313v3.938h-2.018c-1.987 0-2.607 1.233-2.607 2.5v3h4.437l-.709 4.625H18.5v11.181c7.649-1.2 13.5-7.82 13.5-15.806z"/></symbol><symbol id="heart-icon" viewBox="0 0 32 32"><path stroke-linecap="round" stroke-linejoin="round" stroke-width="2.667" d="M16 10.926C13.333 4.667 4 5.333 4 13.333S16 28 16 28s12-6.667 12-14.667-9.333-8.667-12-2.407z"/></symbol><symbol id="cart-icon" viewBox="0 0 32 32"><path stroke-linecap="round" stroke-linejoin="round" stroke-width="2.667" d="M4 4h.358c.632 0 .948 0 1.205.114.227.1.422.262.562.468.159.233.216.543.331 1.165l2.878 15.587h13.893c.606 0 .909 0 1.16-.107.221-.094.412-.247.554-.441.161-.22.228-.515.365-1.106l2.092-9.067c.206-.893.309-1.339.196-1.689a1.336 1.336 0 0 0-.585-.734c-.316-.189-.774-.189-1.69-.189H7.334M24 28a1.333 1.333 0 1 1 0-2.667A1.333 1.333 0 0 1 24 28zm-13.333 0a1.333 1.333 0 1 1 0-2.667 1.333 1.333 0 0 1 0 2.667z"/></symbol><symbol id="search-icon" viewBox="0 0 32 32"><path d="M20.943 19.057a1.333 1.333 0 1 0-1.886 1.886l1.886-1.886zm6.114 9.886a1.333 1.333 0 1 0 1.886-1.886l-1.886 1.886zm-13.724-7.61a8 8 0 0 1-8-8H2.666C2.666 19.224 7.442 24 13.333 24v-2.667zm-8-8a8 8 0 0 1 8-8V2.666c-5.891 0-10.667 4.776-10.667 10.667h2.667zm8-8a8 8 0 0 1 8 8H24c0-5.891-4.776-10.667-10.667-10.667v2.667zm8 8a8 8 0 0 1-8 8V24C19.224 24 24 19.224 24 13.333h-2.667zm-2.276 7.61 8 8 1.886-1.886-8-8-1.886 1.886z"/></symbol><symbol id="arrow-right-icon" viewBox="0 0 32 32"><path fill="none" stroke="var(--color1, #fdfdfd)" stroke-linecap="round" stroke-linejoin="round" stroke-width="2" d="m14.667 12 4 4-4 4M28 16c0-6.627-5.373-12-12-12S4 9.373 4 16s5.373 12 12 12 12-5.373 12-12z"/></symbol><symbol id="logo-icon" viewBox="0 0 92 32"><path fill="var(--color2, #103559)" d="M26.055 26.105c.514 0 .939.174 1.28.518.35.344.518.772.518 1.281s-.168.929-.518 1.281c-.341.344-.766.518-1.28.518h-1.107v1.876h-.893V26.11h2v-.004zm0 2.75c.526 0 .905-.399.905-.955s-.379-.955-.905-.955h-1.107v1.905h1.107v.004zM29.197 30.013c.129.548.632.85 1.313.85.467 0 .819-.153 1.059-.446l.73.376c-.401.525-1.002.787-1.794.787-.663 0-1.206-.18-1.616-.532-.41-.36-.614-.814-.614-1.362s.205-.986.605-1.347c.401-.368.926-.548 1.558-.548.597 0 1.091.188 1.474.556.387.368.583.822.583 1.347 0 .078-.009.188-.031.325h-3.263l-.004-.004zm2.404-.634c-.125-.583-.592-.889-1.171-.889-.654 0-1.113.341-1.238.889H31.6zM35.028 28.437h-.969v1.881c0 .502.327.494.969.464v.762c-1.292.157-1.814-.196-1.814-1.221v-1.881h-.718v-.817h.718v-.847l.845-.251v1.098h.969v.813zM37.109 29.345c.571.122 1.31.353 1.294 1.125 0 .345-.141.619-.414.815s-.615.294-1.029.294c-.731 0-1.274-.317-1.511-.843l.687-.388c.125.345.398.521.82.521s.631-.137.631-.404c0-.231-.309-.368-.703-.462-.555-.137-1.302-.353-1.286-1.113 0-.333.125-.6.386-.799.257-.204.587-.302.969-.302.615 0 1.109.282 1.37.752l-.675.368c-.125-.274-.362-.412-.695-.412-.301 0-.539.129-.539.384 0 .239.309.361.695.47v-.008zM43.468 26.91c-.665-.054-.988.2-.988.758v.075h.988v.8h-.988v3.036h-.906v-3.036h-.638v-.8h.638v-.075c0-1.05.656-1.624 1.895-1.558v.8zM44.506 31.031c-.408-.368-.616-.814-.616-1.347s.208-.979.616-1.347c.408-.368.912-.548 1.494-.548s1.085.18 1.494.548c.408.368.617.814.617 1.347s-.208.979-.617 1.347c-.408.368-.903.548-1.494.548s-1.085-.18-1.494-.548zM46 30.823c.352 0 .647-.11.886-.325s.36-.489.36-.814c0-.325-.122-.599-.36-.814s-.534-.325-.886-.325-.647.11-.886.325-.36.489-.36.814c0 .325.122.599.36.814s.534.325.886.325zM49.402 28.481c.218-.461.638-.692 1.241-.692v.87a1.336 1.336 0 0 0-.869.222c-.249.166-.371.441-.371.821v1.877h-.869v-3.725h.869v.627zM56.972 30.016c0 .446-.15.82-.453 1.117s-.671.446-1.108.446h-2.237v-5.474h2.071c.425 0 .789.149 1.08.437.299.289.445.65.445 1.079 0 .476-.178.845-.53 1.117.453.251.728.705.728 1.274l.004.004zm-2.94-3.066v1.44h1.213c.38 0 .672-.314.672-.718s-.291-.718-.672-.718h-1.213v-.004zm1.379 3.784c.396 0 .708-.335.708-.764s-.312-.764-.708-.764h-1.379v1.533h1.379v-.004zM58.737 30.013c.129.548.631.85 1.312.85.467 0 .818-.153 1.058-.446l.729.376c-.4.525-1.001.787-1.792.787-.663 0-1.205-.18-1.614-.532-.409-.36-.614-.814-.614-1.362s.205-.986.605-1.347c.4-.368.925-.548 1.556-.548.596 0 1.09.188 1.476.556a1.802 1.802 0 0 1 .552 1.672h-3.26l-.009-.004zm2.401-.634c-.124-.583-.591-.889-1.17-.889-.654 0-1.112.341-1.236.889h2.406zM63.696 29.345c.571.122 1.31.353 1.294 1.125 0 .345-.141.619-.414.815s-.615.294-1.029.294c-.731 0-1.274-.317-1.511-.843l.687-.388c.125.345.398.521.82.521s.631-.137.631-.404c0-.231-.309-.368-.703-.462-.555-.137-1.302-.353-1.286-1.113 0-.333.125-.6.386-.799.257-.204.587-.302.969-.302.615 0 1.109.282 1.37.752l-.675.368c-.125-.274-.362-.412-.695-.412-.301 0-.538.129-.538.384 0 .239.309.361.695.47v-.008zM67.945 28.437h-.967v1.881c0 .502.327.494.967.464v.762c-1.289.157-1.811-.196-1.811-1.221v-1.881h-.721v-.817h.721v-.847l.844-.251v1.098h.967v.813zM19.991 2.572c-.11-1.089-.548-1.308-1.398-1.308h-3.619c-.794 0-.986.135-1.287 1.009l-2.714 8.826-2.714-8.826c-.302-.874-.493-1.009-1.287-1.009H3.349c-.85 0-1.287.22-1.398 1.308L.031 19.899c-.081.625-.025.874.522.954l4.142.599c.629.08.769-.055.85-.519l.905-8.117 1.946 7.602c.191.625.438.874 1.07.874h3.016c.629 0 .879-.245 1.07-.874l1.92-7.602.93 8.117c.081.464.221.599.85.519l4.142-.599c.548-.08.603-.325.522-.954L19.992 2.572zM29.963 5.895c-4.648 0-7.174 3.186-7.174 7.579s2.526 7.579 7.174 7.579c4.648 0 7.174-3.186 7.174-7.579s-2.526-7.579-7.174-7.579zm0 10.2c-1.116 0-1.714-1.045-1.714-2.626s.598-2.626 1.714-2.626 1.714 1.045 1.714 2.626-.598 2.626-1.714 2.626zM47.561 5.903c-.953 0-8.082.189-8.546.841-.19.219-.19.517-.19 1.031l.219 11.839c.025 1.085.274 1.439 1.223 1.439h3.322c.953 0 1.223-.353 1.223-1.439V11.44c.409-.135.544-.189 1.008-.219.624-.025.923.164 1.117.677.135.543.164 1.359.164 2.47l-.025 5.242c0 1.085.299 1.439 1.252 1.439h3.402c.953 0 1.197-.353 1.223-1.439l.219-7.223c.025-1.767-.354-3.395-1.252-4.59-.953-1.195-2.369-1.902-4.355-1.902l-.004.008zM60.331 7.579h-3.42c-.936 0-1.205.323-1.205 1.408v10.632c0 1.081.269 1.433 1.205 1.433h3.474c.936 0 1.23-.352 1.23-1.433l-.054-10.632c0-1.056-.294-1.408-1.23-1.408zM58.872.421c-2.026 0-3.165 1.247-3.165 2.947s1.14 2.947 3.165 2.947c2.026 0 3.165-1.247 3.165-2.947S60.897.421 58.872.421zM73.558 6.336h-2.104v-3.66c0-1.084-.278-1.412-1.242-1.412h-3.265c-.968 0-1.272.353-1.272 1.412v3.66h-1.658c-.913 0-1.135.164-1.135 1.004v2.959c0 .84.223 1.004 1.135 1.004h1.658v5.152c0 3.471 1.851 5.018 5.338 5.018 1.024 0 2.048-.08 3.016-.273.416-.08.527-.189.527-.597l-.137-4.152c0-.353-.193-.488-.553-.408-.304.08-.608.134-1.024.134-.801 0-1.384-.273-1.384-1.437v-3.446h2.104c.913 0 1.135-.164 1.135-1.004V7.331c0-.841-.223-1.004-1.135-1.004l-.004.008zM82.716 5.895c-4.649 0-7.175 3.186-7.175 7.579s2.526 7.579 7.175 7.579c4.648 0 7.174-3.186 7.174-7.579s-2.526-7.579-7.174-7.579zm0 10.2c-1.116 0-1.714-1.045-1.714-2.626s.598-2.626 1.714-2.626c1.115 0 1.714 1.045 1.714 2.626s-.598 2.626-1.714 2.626zM91.224 6.488c-.487-.352-1.286-.149-1.79.453s-.518 1.376-.034 1.728c.487.352 1.286.148 1.79-.453s.517-1.376.034-1.728zM79.748 5.465c.574-.088.949-.813.838-1.622s-.66-1.396-1.234-1.308-.949.813-.838 1.622c.111.809.66 1.396 1.233 1.308zM87.175 6.209c.793.4 1.994-.357 2.677-1.693s.596-2.746-.202-3.146c-.793-.4-1.994.357-2.677 1.693s-.596 2.746.202 3.146zM83.07 5.046c.799.102 1.574-.945 1.729-2.335.154-1.394-.368-2.602-1.171-2.704-.799-.102-1.574.945-1.729 2.335-.154 1.394.368 2.602 1.171 2.704z"/></symbol><symbol id="play-icon" viewBox="0 0 32 32"><path d="M16 0C7.163 0 0 7.163 0 16s7.163 16 16 16 16-7.163 16-16S24.837 0 16 0zm0 29C8.82 29 3 23.18 3 16S8.82 3 16 3s13 5.82 13 13-5.82 13-13 13zM12 9l12 7-12 7z"/></symbol></defs></svg>